<svg width="58" height="46" viewBox="0 0 58 46" fill="none" xmlns="http://www.w3.org/2000/svg">
<path d="M8.49984 15.5C2.09984 21.1 1.16651 28.5 1.49984 31.5C9.49991 34.3 13.1665 34 13.9998 33.5C14.3998 29.5 18.4998 25.5 20.4998 24C18.8998 23.6 19.1664 20.1667 19.4998 18.5C15.4998 20.1 10.4998 17.1667 8.49984 15.5Z" stroke="#EFF3FF"/>
<path d="M37.4998 26.5C31.8998 32.1 24.4998 28.8333 21.4998 26.5C15.8998 30.5 14.4998 38.8333 14.4998 42.5C24.8997 46.9 38.8331 44.3333 44.4998 42.5C44.8998 33.7 39.9998 28.1667 37.4998 26.5Z" stroke="#EFF3FF"/>
<path d="M49.9997 15.5C56.3997 21.1 57.333 28.5 56.9997 31.5C48.9996 34.3 45.333 34 44.4998 33.5C44.0998 29.5 39.9998 25.5 37.9998 24C39.5998 23.6 39.3331 20.1667 38.9998 18.5C42.9998 20.1 47.9997 17.1667 49.9997 15.5Z" stroke="#EFF3FF"/>
<path d="M16.5 16.5C12.0817 16.5 8.5 12.9183 8.5 8.5C8.5 4.08172 12.0817 0.5 16.5 0.5C20.9183 0.5 24.5 4.08172 24.5 8.5C24.5 9.23368 24.4014 9.94358 24.2169 10.6175C22.9797 11.1202 20.7909 12.7021 19.6033 15.8759C18.6497 16.2777 17.6014 16.5 16.5 16.5Z" stroke="#EFF3FF"/>
<path d="M42.5 16.5C46.9183 16.5 50.5 12.9183 50.5 8.5C50.5 4.08172 46.9183 0.5 42.5 0.5C38.0817 0.5 34.5 4.08172 34.5 8.5C34.5 9.23368 34.5986 9.94358 34.7831 10.6175C36.0203 11.1202 38.2091 12.7021 39.3967 15.8759C40.3503 16.2777 41.3986 16.5 42.5 16.5Z" stroke="#EFF3FF"/>
<circle cx="29.5" cy="19.5" r="8" stroke="#EFF3FF"/>
</svg>
